<?xml version="1.0" encoding="UTF-8" standalone="no"?>
<svg
   height="16px"
   viewBox="0 0 16 16"
   width="16px"
   version="1.1"
   id="svg1"
   sodipodi:docname="audio-volume-low-symbolic.svg"
   inkscape:version="1.3.2 (091e20ef0f, 2023-11-25, custom)"
   xmlns:inkscape="http://www.inkscape.org/namespaces/inkscape"
   xmlns:sodipodi="http://sodipodi.sourceforge.net/DTD/sodipodi-0.dtd"
   xmlns="http://www.w3.org/2000/svg"
   xmlns:svg="http://www.w3.org/2000/svg">
  <defs
     id="defs1" />
  <sodipodi:namedview
     id="namedview1"
     pagecolor="#ffffff"
     bordercolor="#000000"
     borderopacity="0.25"
     inkscape:showpageshadow="2"
     inkscape:pageopacity="0.0"
     inkscape:pagecheckerboard="0"
     inkscape:deskcolor="#d1d1d1"
     inkscape:zoom="35.4375"
     inkscape:cx="7.9858907"
     inkscape:cy="8"
     inkscape:window-width="1362"
     inkscape:window-height="730"
     inkscape:window-x="0"
     inkscape:window-y="17"
     inkscape:window-maximized="1"
     inkscape:current-layer="svg1" />
  <path
     d="M 8.448547,0.95708586 C 8.151672,0.95317986 7.870422,1.0820859 7.679016,1.3086489 l -3.230469,3.640625 h -1 c -1.09375,0 -2,0.84375 -2,2 v 2 c 0,1.0898441 0.910156,2.0000001 2,2.0000001 h 1 l 3.230469,3.640625 c 0.210937,0.253906 0.492187,0.363281 0.769531,0.359375 z m 2.957031,2.98046904 c -0.199219,0.011719 -0.394531,0.074219 -0.5625,0.203125 -0.441406,0.332032 -0.53125,0.960938 -0.195312,1.402344 1.074219,1.425781 1.074219,3.386719 0,4.8125001 -0.335938,0.441406 -0.246094,1.070312 0.195312,1.402344 0.441407,0.332031 1.066407,0.242187 1.398438,-0.195313 0.804687,-1.070312 1.207031,-2.3398431 1.207031,-3.6132811 0,-1.273438 -0.402344,-2.542969 -1.207031,-3.613281 -0.183594,-0.246094 -0.464844,-0.382813 -0.753907,-0.398438 -0.02734,0 -0.05469,0 -0.08594,0 z m 0,0"
     fill="#2e3436"
     id="path1"
     style="fill:#17fc17;fill-opacity:1" />
</svg>
